<?xml version="1.0" standalone="no"?><svg xmlns="http://www.w3.org/2000/svg" viewBox="0 0 1440 320"><path fill="#0099ff" fill-opacity="1" d="M0,288L20,282.7C40,277,80,267,120,266.7C160,267,200,277,240,240C280,203,320,117,360,117.3C400,117,440,203,480,250.7C520,299,560,309,600,309.3C640,309,680,299,720,272C760,245,800,203,840,208C880,213,920,267,960,272C1000,277,1040,235,1080,192C1120,149,1160,107,1200,112C1240,117,1280,171,1320,213.3C1360,256,1400,288,1420,304L1440,320L1440,0L1420,0C1400,0,1360,0,1320,0C1280,0,1240,0,1200,0C1160,0,1120,0,1080,0C1040,0,1000,0,960,0C920,0,880,0,840,0C800,0,760,0,720,0C680,0,640,0,600,0C560,0,520,0,480,0C440,0,400,0,360,0C320,0,280,0,240,0C200,0,160,0,120,0C80,0,40,0,20,0L0,0Z"></path></svg>