<svg xmlns="http://www.w3.org/2000/svg" viewBox="0 0 1440 320"><path fill="#fff" fill-opacity="2" d="M0,160L18.5,181.3C36.9,203,74,245,111,240C147.7,235,185,181,222,176C258.5,171,295,213,332,213.3C369.2,213,406,171,443,165.3C480,160,517,192,554,197.3C590.8,203,628,181,665,192C701.5,203,738,245,775,250.7C812.3,256,849,224,886,218.7C923.1,213,960,235,997,250.7C1033.8,267,1071,277,1108,245.3C1144.6,213,1182,139,1218,128C1255.4,117,1292,171,1329,192C1366.2,213,1403,203,1422,197.3L1440,192L1440,0L1421.5,0C1403.1,0,1366,0,1329,0C1292.3,0,1255,0,1218,0C1181.5,0,1145,0,1108,0C1070.8,0,1034,0,997,0C960,0,923,0,886,0C849.2,0,812,0,775,0C738.5,0,702,0,665,0C627.7,0,591,0,554,0C516.9,0,480,0,443,0C406.2,0,369,0,332,0C295.4,0,258,0,222,0C184.6,0,148,0,111,0C73.8,0,37,0,18,0L0,0Z"></path></svg>